<svg xmlns="http://www.w3.org/2000/svg" xmlns:xlink="http://www.w3.org/1999/xlink" width="500" zoomAndPan="magnify" viewBox="0 0 375 374.999991" height="500" preserveAspectRatio="xMidYMid meet" version="1.0"><defs><g/></defs><rect x="-37.5" width="450" fill="#ffffff" y="-37.499999" height="449.999989" fill-opacity="1"/><rect x="-37.5" width="450" fill="#ffffff" y="-37.499999" height="449.999989" fill-opacity="1"/><g fill="#000000" fill-opacity="1"><g transform="translate(61.553036, 183.476338)"><g><path d="M 22.5 -22.671875 C 22.40625 -24.703125 21.640625 -26.296875 20.203125 -27.453125 C 18.773438 -28.609375 16.894531 -29.1875 14.5625 -29.1875 C 12.207031 -29.1875 10.394531 -28.703125 9.125 -27.734375 C 7.863281 -26.765625 7.234375 -25.375 7.234375 -23.5625 C 7.234375 -22.59375 7.507812 -21.757812 8.0625 -21.0625 C 8.613281 -20.363281 9.601562 -19.847656 11.03125 -19.515625 L 20.1875 -17.421875 C 22.65625 -16.878906 24.484375 -15.851562 25.671875 -14.34375 C 26.867188 -12.84375 27.46875 -11.007812 27.46875 -8.84375 C 27.46875 -5.675781 26.300781 -3.269531 23.96875 -1.625 C 21.644531 0.0195312 18.625 0.84375 14.90625 0.84375 C 12.070312 0.84375 9.835938 0.484375 8.203125 -0.234375 C 6.566406 -0.960938 5.117188 -2.117188 3.859375 -3.703125 C 2.597656 -5.285156 1.96875 -7.503906 1.96875 -10.359375 L 6.015625 -10.359375 C 6.015625 -7.972656 6.804688 -6.125 8.390625 -4.8125 C 9.972656 -3.507812 12.128906 -2.859375 14.859375 -2.859375 C 17.503906 -2.859375 19.5625 -3.328125 21.03125 -4.265625 C 22.507812 -5.203125 23.25 -6.535156 23.25 -8.265625 C 23.25 -9.828125 22.8125 -11 21.9375 -11.78125 C 21.0625 -12.5625 19.34375 -13.25 16.78125 -13.84375 L 9.875 -15.453125 C 7.582031 -15.972656 5.867188 -16.882812 4.734375 -18.1875 C 3.597656 -19.488281 3.03125 -21.09375 3.03125 -23 C 3.03125 -25.875 4 -28.238281 5.9375 -30.09375 C 7.875 -31.957031 10.582031 -32.890625 14.0625 -32.890625 C 17.976562 -32.890625 21 -32.070312 23.125 -30.4375 C 25.257812 -28.800781 26.410156 -26.210938 26.578125 -22.671875 Z M 22.5 -22.671875 "/></g></g><g transform="translate(91.11068, 183.476338)"><g><path d="M 7.953125 -17.234375 L 16.5625 -17.234375 C 18.726562 -17.234375 20.351562 -17.707031 21.4375 -18.65625 C 22.53125 -19.613281 23.078125 -21.0625 23.078125 -23 C 23.078125 -24.726562 22.550781 -26.050781 21.5 -26.96875 C 20.457031 -27.882812 18.867188 -28.34375 16.734375 -28.34375 L 7.953125 -28.34375 Z M 7.953125 0 L 3.625 0 L 3.625 -32.046875 L 18.03125 -32.046875 C 20.894531 -32.046875 23.195312 -31.210938 24.9375 -29.546875 C 26.675781 -27.878906 27.546875 -25.710938 27.546875 -23.046875 C 27.546875 -20.265625 26.703125 -17.984375 25.015625 -16.203125 C 23.335938 -14.421875 21.007812 -13.53125 18.03125 -13.53125 L 7.953125 -13.53125 Z M 7.953125 0 "/></g></g><g transform="translate(119.970799, 183.476338)"><g><path d="M 19.640625 -13.171875 L 14.90625 -27.265625 L 14.828125 -27.265625 L 9.671875 -13.171875 Z M 8.34375 -9.328125 L 4.984375 0 L 0.546875 0 L 12.59375 -32.046875 L 17.5 -32.046875 L 29.09375 0 L 24.375 0 L 21.203125 -9.328125 Z M 8.34375 -9.328125 "/></g></g><g transform="translate(149.746421, 183.476338)"><g><path d="M 25.890625 -22.40625 C 25.410156 -24.582031 24.40625 -26.234375 22.875 -27.359375 C 21.34375 -28.492188 19.359375 -29.0625 16.921875 -29.0625 C 13.765625 -29.0625 11.226562 -27.914062 9.3125 -25.625 C 7.394531 -23.332031 6.4375 -20.238281 6.4375 -16.34375 C 6.4375 -11.84375 7.34375 -8.488281 9.15625 -6.28125 C 10.96875 -4.082031 13.597656 -2.984375 17.046875 -2.984375 C 19.316406 -2.984375 21.265625 -3.734375 22.890625 -5.234375 C 24.523438 -6.742188 25.628906 -8.929688 26.203125 -11.796875 L 30.40625 -11.796875 C 29.84375 -7.679688 28.28125 -4.546875 25.71875 -2.390625 C 23.164062 -0.234375 20.054688 0.84375 16.390625 0.84375 C 12.015625 0.84375 8.515625 -0.65625 5.890625 -3.65625 C 3.273438 -6.664062 1.96875 -10.84375 1.96875 -16.1875 C 1.96875 -21.351562 3.332031 -25.425781 6.0625 -28.40625 C 8.800781 -31.394531 12.421875 -32.890625 16.921875 -32.890625 C 20.640625 -32.890625 23.648438 -31.929688 25.953125 -30.015625 C 28.265625 -28.097656 29.640625 -25.5625 30.078125 -22.40625 Z M 25.890625 -22.40625 "/></g></g><g transform="translate(182.028774, 183.476338)"><g><path d="M 27.265625 0 L 3.625 0 L 3.625 -32.046875 L 26.96875 -32.046875 L 26.96875 -28.203125 L 7.953125 -28.203125 L 7.953125 -18.390625 L 25.484375 -18.390625 L 25.484375 -14.5625 L 7.953125 -14.5625 L 7.953125 -3.84375 L 27.265625 -3.84375 Z M 27.265625 0 "/></g></g><g transform="translate(211.041477, 183.476338)"><g><path d="M 12.90625 -10.359375 L 1.96875 -10.359375 L 1.96875 -14.359375 L 12.90625 -14.359375 Z M 12.90625 -10.359375 "/></g></g><g transform="translate(225.907489, 183.476338)"><g><path d="M 5.25 -10.3125 L 5.25 -8.125 C 5.25 -6.394531 5.628906 -5.082031 6.390625 -4.1875 C 7.160156 -3.300781 8.382812 -2.859375 10.0625 -2.859375 C 11.820312 -2.859375 13.117188 -3.316406 13.953125 -4.234375 C 14.796875 -5.160156 15.21875 -6.546875 15.21875 -8.390625 L 15.21875 -32.046875 L 19.546875 -32.046875 L 19.546875 -8.65625 C 19.546875 -5.582031 18.734375 -3.226562 17.109375 -1.59375 C 15.484375 0.03125 13.21875 0.84375 10.3125 0.84375 C 7.445312 0.84375 5.210938 0.113281 3.609375 -1.34375 C 2.003906 -2.800781 1.203125 -4.75 1.203125 -7.1875 L 1.203125 -10.3125 Z M 5.25 -10.3125 "/></g></g><g transform="translate(248.707855, 183.476338)"><g><path d="M 28.53125 -16.015625 C 28.53125 -19.765625 27.535156 -22.875 25.546875 -25.34375 C 23.566406 -27.820312 20.84375 -29.0625 17.375 -29.0625 C 13.945312 -29.0625 11.226562 -27.820312 9.21875 -25.34375 C 7.21875 -22.875 6.21875 -19.765625 6.21875 -16.015625 C 6.21875 -12.148438 7.234375 -9.007812 9.265625 -6.59375 C 11.296875 -4.1875 14 -2.984375 17.375 -2.984375 C 20.675781 -2.984375 23.359375 -4.160156 25.421875 -6.515625 C 27.492188 -8.867188 28.53125 -12.035156 28.53125 -16.015625 Z M 32.984375 -16.015625 C 32.984375 -11.234375 31.601562 -7.226562 28.84375 -4 C 26.082031 -0.769531 22.257812 0.84375 17.375 0.84375 C 12.457031 0.84375 8.625 -0.769531 5.875 -4 C 3.125 -7.226562 1.75 -11.234375 1.75 -16.015625 C 1.75 -20.816406 3.125 -24.828125 5.875 -28.046875 C 8.625 -31.273438 12.457031 -32.890625 17.375 -32.890625 C 22.40625 -32.890625 26.265625 -31.25 28.953125 -27.96875 C 31.640625 -24.6875 32.984375 -20.703125 32.984375 -16.015625 Z M 32.984375 -16.015625 "/></g></g><g transform="translate(283.431548, 183.476338)"><g><path d="M 3.625 -32.046875 L 17.671875 -32.046875 C 20.429688 -32.046875 22.632812 -31.296875 24.28125 -29.796875 C 25.925781 -28.296875 26.75 -26.359375 26.75 -23.984375 C 26.75 -22.535156 26.390625 -21.21875 25.671875 -20.03125 C 24.953125 -18.851562 23.878906 -17.9375 22.453125 -17.28125 C 24.441406 -16.53125 25.90625 -15.53125 26.84375 -14.28125 C 27.78125 -13.03125 28.25 -11.421875 28.25 -9.453125 C 28.25 -6.691406 27.253906 -4.425781 25.265625 -2.65625 C 23.273438 -0.882812 20.644531 0 17.375 0 L 3.625 0 Z M 7.890625 -3.703125 L 17.125 -3.703125 C 19.394531 -3.703125 21.097656 -4.226562 22.234375 -5.28125 C 23.367188 -6.332031 23.9375 -7.753906 23.9375 -9.546875 C 23.9375 -11.359375 23.300781 -12.710938 22.03125 -13.609375 C 20.769531 -14.503906 18.90625 -14.953125 16.4375 -14.953125 L 7.890625 -14.953125 Z M 7.890625 -18.484375 L 15.765625 -18.484375 C 18.054688 -18.484375 19.734375 -18.898438 20.796875 -19.734375 C 21.867188 -20.566406 22.40625 -21.875 22.40625 -23.65625 C 22.40625 -25.175781 21.898438 -26.335938 20.890625 -27.140625 C 19.878906 -27.941406 18.179688 -28.34375 15.796875 -28.34375 L 7.890625 -28.34375 Z M 7.890625 -18.484375 "/></g></g></g></svg>